<?xml version="1.0" encoding="UTF-8"?>
<!DOCTYPE svg PUBLIC "-//W3C//DTD SVG 1.1//EN" "http://www.w3.org/Graphics/SVG/1.1/DTD/svg11.dtd">
<svg version="1.1" xmlns="http://www.w3.org/2000/svg" xmlns:xlink="http://www.w3.org/1999/xlink" x="0" y="0" width="100" height="100" viewBox="0, 0, 100, 100">
  <g id="surface1">
    <g>
      <path d="M-9.776,-8.23 L109.776,-8.23 L109.776,108.326 L-9.776,108.326 L-9.776,-8.23 z" fill="#DDDDDD"/>
      <path d="M-9.776,-8.23 L109.776,-8.23 L109.776,108.326 L-9.776,108.326 L-9.776,-8.23 z" fill-opacity="0" stroke="#000000" stroke-width="1"/>
    </g>
    <path d="M2.691,51.524 C2.253,52.243 1.831,52.399 1.347,52.431 C1.222,52.446 1.112,52.446 1.112,52.649 C1.112,52.727 1.175,52.774 1.269,52.774 C1.55,52.774 1.894,52.743 2.206,52.743 C2.566,52.743 2.941,52.774 3.284,52.774 C3.362,52.774 3.503,52.774 3.503,52.571 C3.503,52.446 3.394,52.431 3.316,52.431 C3.066,52.415 2.816,52.321 2.816,52.056 C2.816,51.931 2.878,51.806 2.956,51.649 L3.784,50.259 L6.534,50.259 C6.55,50.477 6.706,51.962 6.706,52.071 C6.706,52.399 6.144,52.431 5.925,52.431 C5.769,52.431 5.659,52.431 5.659,52.649 C5.659,52.774 5.784,52.774 5.816,52.774 C6.253,52.774 6.722,52.743 7.175,52.743 C7.441,52.743 8.128,52.774 8.409,52.774 C8.472,52.774 8.597,52.774 8.597,52.556 C8.597,52.431 8.487,52.431 8.347,52.431 C7.675,52.431 7.675,52.352 7.644,52.04 L6.972,45.227 C6.956,45.009 6.956,44.962 6.769,44.962 C6.597,44.962 6.55,45.04 6.487,45.149 z M4.003,49.915 L6.144,46.321 L6.503,49.915 z M4.003,49.915" fill="#000000"/>
    <path d="M19.449,49.212 C19.606,49.212 19.809,49.212 19.809,48.993 C19.809,48.774 19.606,48.774 19.449,48.774 L12.918,48.774 C12.762,48.774 12.559,48.774 12.559,48.993 C12.559,49.212 12.762,49.212 12.934,49.212 z M19.449,51.321 C19.606,51.321 19.809,51.321 19.809,51.102 C19.809,50.884 19.606,50.884 19.449,50.884 L12.934,50.884 C12.762,50.884 12.559,50.884 12.559,51.102 C12.559,51.321 12.762,51.321 12.918,51.321 z M19.449,51.321" fill="#000000"/>
    <path d="M27.027,40.217 L27.777,40.217 L27.777,21.357 L30.652,21.357 L30.652,20.607 L27.027,20.607 z M27.027,40.217" fill="#000000"/>
    <path d="M27.027,46.776 L27.777,46.776 L27.777,40.214 L27.027,40.214 z M27.027,46.776" fill="#000000"/>
    <path d="M27.027,53.321 L27.777,53.321 L27.777,46.759 L27.027,46.759 z M27.027,53.321" fill="#000000"/>
    <path d="M27.027,59.867 L27.777,59.867 L27.777,53.305 L27.027,53.305 z M27.027,59.867" fill="#000000"/>
    <path d="M27.027,79.49 L30.652,79.49 L30.652,78.74 L27.777,78.74 L27.777,59.865 L27.027,59.865 z M27.027,79.49" fill="#000000"/>
    <path d="M39.3,28.376 C38.862,29.095 38.44,29.251 37.956,29.283 C37.831,29.298 37.721,29.298 37.721,29.501 C37.721,29.579 37.784,29.626 37.878,29.626 C38.159,29.626 38.503,29.595 38.815,29.595 C39.175,29.595 39.55,29.626 39.893,29.626 C39.971,29.626 40.112,29.626 40.112,29.423 C40.112,29.298 40.003,29.283 39.925,29.283 C39.675,29.267 39.425,29.173 39.425,28.908 C39.425,28.783 39.487,28.658 39.565,28.501 L40.393,27.111 L43.143,27.111 C43.159,27.329 43.315,28.814 43.315,28.923 C43.315,29.251 42.753,29.283 42.534,29.283 C42.378,29.283 42.268,29.283 42.268,29.501 C42.268,29.626 42.393,29.626 42.425,29.626 C42.862,29.626 43.331,29.595 43.784,29.595 C44.05,29.595 44.737,29.626 45.018,29.626 C45.081,29.626 45.206,29.626 45.206,29.408 C45.206,29.283 45.096,29.283 44.956,29.283 C44.284,29.283 44.284,29.204 44.253,28.892 L43.581,22.079 C43.565,21.861 43.565,21.814 43.378,21.814 C43.206,21.814 43.159,21.892 43.096,22.001 z M40.612,26.767 L42.753,23.173 L43.112,26.767 z M40.612,26.767" fill="#000000"/>
    <g>
      <path d="M48.028,26.184 C48.028,25.965 48.013,25.965 47.794,25.965 C47.466,26.278 47.044,26.465 46.294,26.465 L46.294,26.731 C46.513,26.731 46.935,26.731 47.403,26.528 L47.403,30.606 C47.403,30.903 47.372,30.997 46.622,30.997 L46.341,30.997 L46.341,31.262 C46.669,31.231 47.357,31.231 47.716,31.231 C48.075,31.231 48.763,31.231 49.091,31.262 L49.091,30.997 L48.81,30.997 C48.06,30.997 48.028,30.903 48.028,30.606 z M48.028,26.184" fill="#000000"/>
      <path d="M52.263,26.184 C52.263,25.965 52.247,25.965 52.029,25.965 C51.7,26.278 51.279,26.465 50.529,26.465 L50.529,26.731 C50.747,26.731 51.169,26.731 51.638,26.528 L51.638,30.606 C51.638,30.903 51.607,30.997 50.857,30.997 L50.575,30.997 L50.575,31.262 C50.904,31.231 51.591,31.231 51.95,31.231 C52.31,31.231 52.997,31.231 53.325,31.262 L53.325,30.997 L53.044,30.997 C52.294,30.997 52.263,30.903 52.263,30.606 z M52.263,26.184" fill="#000000"/>
    </g>
    <path d="M69.667,28.376 C69.229,29.095 68.807,29.251 68.323,29.283 C68.198,29.298 68.088,29.298 68.088,29.501 C68.088,29.579 68.151,29.626 68.245,29.626 C68.526,29.626 68.87,29.595 69.182,29.595 C69.542,29.595 69.917,29.626 70.26,29.626 C70.338,29.626 70.479,29.626 70.479,29.423 C70.479,29.298 70.37,29.283 70.292,29.283 C70.042,29.267 69.792,29.173 69.792,28.908 C69.792,28.783 69.854,28.658 69.932,28.501 L70.76,27.111 L73.51,27.111 C73.526,27.329 73.682,28.814 73.682,28.923 C73.682,29.251 73.12,29.283 72.901,29.283 C72.745,29.283 72.635,29.283 72.635,29.501 C72.635,29.626 72.76,29.626 72.792,29.626 C73.229,29.626 73.698,29.595 74.151,29.595 C74.417,29.595 75.104,29.626 75.385,29.626 C75.448,29.626 75.573,29.626 75.573,29.408 C75.573,29.283 75.463,29.283 75.323,29.283 C74.651,29.283 74.651,29.204 74.62,28.892 L73.948,22.079 C73.932,21.861 73.932,21.814 73.745,21.814 C73.573,21.814 73.526,21.892 73.463,22.001 z M70.979,26.767 L73.12,23.173 L73.479,26.767 z M70.979,26.767" fill="#000000"/>
    <g>
      <path d="M78.395,26.184 C78.395,25.965 78.38,25.965 78.161,25.965 C77.833,26.278 77.411,26.465 76.661,26.465 L76.661,26.731 C76.88,26.731 77.302,26.731 77.77,26.528 L77.77,30.606 C77.77,30.903 77.739,30.997 76.989,30.997 L76.708,30.997 L76.708,31.262 C77.036,31.231 77.724,31.231 78.083,31.231 C78.442,31.231 79.13,31.231 79.458,31.262 L79.458,30.997 L79.177,30.997 C78.427,30.997 78.395,30.903 78.395,30.606 z M78.395,26.184" fill="#000000"/>
      <path d="M82.38,29.637 C82.505,29.512 82.833,29.247 82.974,29.137 C83.458,28.684 83.927,28.247 83.927,27.528 C83.927,26.575 83.13,25.965 82.146,25.965 C81.177,25.965 80.552,26.684 80.552,27.403 C80.552,27.794 80.864,27.84 80.974,27.84 C81.146,27.84 81.396,27.731 81.396,27.419 C81.396,27.012 80.989,27.012 80.896,27.012 C81.13,26.419 81.661,26.231 82.052,26.231 C82.786,26.231 83.177,26.856 83.177,27.528 C83.177,28.356 82.599,28.965 81.646,29.919 L80.646,30.965 C80.552,31.044 80.552,31.059 80.552,31.262 L83.692,31.262 L83.927,29.84 L83.677,29.84 C83.661,29.997 83.599,30.387 83.505,30.544 C83.458,30.606 82.849,30.606 82.724,30.606 L81.302,30.606 z M82.38,29.637" fill="#000000"/>
    </g>
    <g>
      <path d="M98.547,26.908 C98.547,26.579 98.282,26.329 97.969,26.329 C97.657,26.329 97.391,26.579 97.391,26.908 C97.391,27.22 97.657,27.47 97.969,27.47 C98.282,27.47 98.547,27.22 98.547,26.908 z M98.547,26.908" fill="#000000"/>
      <path d="M103.4,26.908 C103.4,26.579 103.134,26.329 102.821,26.329 C102.509,26.329 102.243,26.579 102.243,26.908 C102.243,27.22 102.509,27.47 102.821,27.47 C103.134,27.47 103.4,27.22 103.4,26.908 z M103.4,26.908" fill="#000000"/>
    </g>
    <path d="M108.241,26.908 C108.241,26.579 107.975,26.329 107.663,26.329 C107.35,26.329 107.085,26.579 107.085,26.908 C107.085,27.22 107.35,27.47 107.663,27.47 C107.975,27.47 108.241,27.22 108.241,26.908 z M108.241,26.908" fill="#000000"/>
    <path d="M39.3,41.925 C38.862,42.644 38.44,42.8 37.956,42.832 C37.831,42.847 37.721,42.847 37.721,43.05 C37.721,43.128 37.784,43.175 37.878,43.175 C38.159,43.175 38.503,43.144 38.815,43.144 C39.175,43.144 39.55,43.175 39.893,43.175 C39.971,43.175 40.112,43.175 40.112,42.972 C40.112,42.847 40.003,42.832 39.925,42.832 C39.675,42.816 39.425,42.722 39.425,42.457 C39.425,42.332 39.487,42.207 39.565,42.05 L40.393,40.66 L43.143,40.66 C43.159,40.878 43.315,42.363 43.315,42.472 C43.315,42.8 42.753,42.832 42.534,42.832 C42.378,42.832 42.268,42.832 42.268,43.05 C42.268,43.175 42.393,43.175 42.425,43.175 C42.862,43.175 43.331,43.144 43.784,43.144 C44.05,43.144 44.737,43.175 45.018,43.175 C45.081,43.175 45.206,43.175 45.206,42.957 C45.206,42.832 45.096,42.832 44.956,42.832 C44.284,42.832 44.284,42.753 44.253,42.441 L43.581,35.628 C43.565,35.41 43.565,35.363 43.378,35.363 C43.206,35.363 43.159,35.441 43.096,35.55 z M40.612,40.316 L42.753,36.722 L43.112,40.316 z M40.612,40.316" fill="#000000"/>
    <g>
      <path d="M47.778,43.186 C47.903,43.061 48.232,42.796 48.372,42.686 C48.857,42.233 49.325,41.796 49.325,41.077 C49.325,40.124 48.528,39.515 47.544,39.515 C46.575,39.515 45.95,40.233 45.95,40.952 C45.95,41.343 46.263,41.39 46.372,41.39 C46.544,41.39 46.794,41.28 46.794,40.968 C46.794,40.561 46.388,40.561 46.294,40.561 C46.528,39.968 47.06,39.78 47.45,39.78 C48.185,39.78 48.575,40.405 48.575,41.077 C48.575,41.905 47.997,42.515 47.044,43.468 L46.044,44.515 C45.95,44.593 45.95,44.608 45.95,44.811 L49.091,44.811 L49.325,43.39 L49.075,43.39 C49.06,43.546 48.997,43.936 48.903,44.093 C48.857,44.155 48.247,44.155 48.122,44.155 L46.7,44.155 z M47.778,43.186" fill="#000000"/>
      <path d="M52.263,39.733 C52.263,39.515 52.247,39.515 52.029,39.515 C51.7,39.827 51.279,40.015 50.529,40.015 L50.529,40.28 C50.747,40.28 51.169,40.28 51.638,40.077 L51.638,44.155 C51.638,44.452 51.607,44.546 50.857,44.546 L50.575,44.546 L50.575,44.811 C50.904,44.78 51.591,44.78 51.95,44.78 C52.31,44.78 52.997,44.78 53.325,44.811 L53.325,44.546 L53.044,44.546 C52.294,44.546 52.263,44.452 52.263,44.155 z M52.263,39.733" fill="#000000"/>
    </g>
    <path d="M69.667,41.925 C69.229,42.644 68.807,42.8 68.323,42.832 C68.198,42.847 68.088,42.847 68.088,43.05 C68.088,43.128 68.151,43.175 68.245,43.175 C68.526,43.175 68.87,43.144 69.182,43.144 C69.542,43.144 69.917,43.175 70.26,43.175 C70.338,43.175 70.479,43.175 70.479,42.972 C70.479,42.847 70.37,42.832 70.292,42.832 C70.042,42.816 69.792,42.722 69.792,42.457 C69.792,42.332 69.854,42.207 69.932,42.05 L70.76,40.66 L73.51,40.66 C73.526,40.878 73.682,42.363 73.682,42.472 C73.682,42.8 73.12,42.832 72.901,42.832 C72.745,42.832 72.635,42.832 72.635,43.05 C72.635,43.175 72.76,43.175 72.792,43.175 C73.229,43.175 73.698,43.144 74.151,43.144 C74.417,43.144 75.104,43.175 75.385,43.175 C75.448,43.175 75.573,43.175 75.573,42.957 C75.573,42.832 75.463,42.832 75.323,42.832 C74.651,42.832 74.651,42.753 74.62,42.441 L73.948,35.628 C73.932,35.41 73.932,35.363 73.745,35.363 C73.573,35.363 73.526,35.441 73.463,35.55 z M70.979,40.316 L73.12,36.722 L73.479,40.316 z M70.979,40.316" fill="#000000"/>
    <g>
      <path d="M78.145,43.186 C78.27,43.061 78.599,42.796 78.739,42.686 C79.224,42.233 79.692,41.796 79.692,41.077 C79.692,40.124 78.895,39.515 77.911,39.515 C76.942,39.515 76.317,40.233 76.317,40.952 C76.317,41.343 76.63,41.39 76.739,41.39 C76.911,41.39 77.161,41.28 77.161,40.968 C77.161,40.561 76.755,40.561 76.661,40.561 C76.895,39.968 77.427,39.78 77.817,39.78 C78.552,39.78 78.942,40.405 78.942,41.077 C78.942,41.905 78.364,42.515 77.411,43.468 L76.411,44.515 C76.317,44.593 76.317,44.608 76.317,44.811 L79.458,44.811 L79.692,43.39 L79.442,43.39 C79.427,43.546 79.364,43.936 79.27,44.093 C79.224,44.155 78.614,44.155 78.489,44.155 L77.067,44.155 z M78.145,43.186" fill="#000000"/>
      <path d="M82.38,43.186 C82.505,43.061 82.833,42.796 82.974,42.686 C83.458,42.233 83.927,41.796 83.927,41.077 C83.927,40.124 83.13,39.515 82.146,39.515 C81.177,39.515 80.552,40.233 80.552,40.952 C80.552,41.343 80.864,41.39 80.974,41.39 C81.146,41.39 81.396,41.28 81.396,40.968 C81.396,40.561 80.989,40.561 80.896,40.561 C81.13,39.968 81.661,39.78 82.052,39.78 C82.786,39.78 83.177,40.405 83.177,41.077 C83.177,41.905 82.599,42.515 81.646,43.468 L80.646,44.515 C80.552,44.593 80.552,44.608 80.552,44.811 L83.692,44.811 L83.927,43.39 L83.677,43.39 C83.661,43.546 83.599,43.936 83.505,44.093 C83.458,44.155 82.849,44.155 82.724,44.155 L81.302,44.155 z M82.38,43.186" fill="#000000"/>
    </g>
    <g>
      <path d="M98.547,40.457 C98.547,40.129 98.282,39.879 97.969,39.879 C97.657,39.879 97.391,40.129 97.391,40.457 C97.391,40.769 97.657,41.019 97.969,41.019 C98.282,41.019 98.547,40.769 98.547,40.457 z M98.547,40.457" fill="#000000"/>
      <path d="M103.4,40.457 C103.4,40.129 103.134,39.879 102.821,39.879 C102.509,39.879 102.243,40.129 102.243,40.457 C102.243,40.769 102.509,41.019 102.821,41.019 C103.134,41.019 103.4,40.769 103.4,40.457 z M103.4,40.457" fill="#000000"/>
    </g>
    <path d="M108.241,40.457 C108.241,40.128 107.975,39.878 107.663,39.878 C107.35,39.878 107.085,40.128 107.085,40.457 C107.085,40.769 107.35,41.019 107.663,41.019 C107.975,41.019 108.241,40.769 108.241,40.457 z M108.241,40.457" fill="#000000"/>
    <path d="M46.499,53.791 C46.499,53.479 46.234,53.213 45.921,53.213 C45.609,53.213 45.343,53.479 45.343,53.791 C45.343,54.104 45.609,54.369 45.921,54.369 C46.234,54.369 46.499,54.104 46.499,53.791 z M46.499,53.791" fill="#000000"/>
    <path d="M46.499,57.776 C46.499,57.464 46.234,57.198 45.921,57.198 C45.609,57.198 45.343,57.464 45.343,57.776 C45.343,58.089 45.609,58.354 45.921,58.354 C46.234,58.354 46.499,58.089 46.499,57.776 z M46.499,57.776" fill="#000000"/>
    <path d="M46.499,61.761 C46.499,61.449 46.234,61.183 45.921,61.183 C45.609,61.183 45.343,61.449 45.343,61.761 C45.343,62.074 45.609,62.339 45.921,62.339 C46.234,62.339 46.499,62.074 46.499,61.761 z M46.499,61.761" fill="#000000"/>
    <path d="M76.866,53.791 C76.866,53.479 76.601,53.213 76.288,53.213 C75.976,53.213 75.71,53.479 75.71,53.791 C75.71,54.104 75.976,54.369 76.288,54.369 C76.601,54.369 76.866,54.104 76.866,53.791 z M76.866,53.791" fill="#000000"/>
    <path d="M76.866,57.776 C76.866,57.464 76.601,57.198 76.288,57.198 C75.976,57.198 75.71,57.464 75.71,57.776 C75.71,58.089 75.976,58.354 76.288,58.354 C76.601,58.354 76.866,58.089 76.866,57.776 z M76.866,57.776" fill="#000000"/>
    <path d="M76.866,61.761 C76.866,61.449 76.601,61.183 76.288,61.183 C75.976,61.183 75.71,61.449 75.71,61.761 C75.71,62.074 75.976,62.339 76.288,62.339 C76.601,62.339 76.866,62.074 76.866,61.761 z M76.866,61.761" fill="#000000"/>
    <path d="M100.062,54.787 C100.062,54.475 99.797,54.209 99.484,54.209 C99.172,54.209 98.906,54.475 98.906,54.787 C98.906,55.1 99.172,55.365 99.484,55.365 C99.797,55.365 100.062,55.1 100.062,54.787 z M100.062,54.787" fill="#000000"/>
    <path d="M104.304,57.776 C104.304,57.464 104.039,57.198 103.726,57.198 C103.414,57.198 103.148,57.464 103.148,57.776 C103.148,58.089 103.414,58.354 103.726,58.354 C104.039,58.354 104.304,58.089 104.304,57.776 z M104.304,57.776" fill="#000000"/>
    <path d="M108.547,60.765 C108.547,60.453 108.282,60.187 107.969,60.187 C107.657,60.187 107.391,60.453 107.391,60.765 C107.391,61.078 107.657,61.343 107.969,61.343 C108.282,61.343 108.547,61.078 108.547,60.765 z M108.547,60.765" fill="#000000"/>
    <path d="M37.672,74.638 C37.234,75.357 36.812,75.513 36.328,75.545 C36.203,75.56 36.093,75.56 36.093,75.763 C36.093,75.841 36.156,75.888 36.25,75.888 C36.531,75.888 36.875,75.857 37.187,75.857 C37.547,75.857 37.922,75.888 38.265,75.888 C38.343,75.888 38.484,75.888 38.484,75.685 C38.484,75.56 38.375,75.545 38.297,75.545 C38.047,75.529 37.797,75.435 37.797,75.17 C37.797,75.045 37.859,74.92 37.937,74.763 L38.765,73.373 L41.515,73.373 C41.531,73.591 41.687,75.076 41.687,75.185 C41.687,75.513 41.125,75.545 40.906,75.545 C40.75,75.545 40.64,75.545 40.64,75.763 C40.64,75.888 40.765,75.888 40.797,75.888 C41.234,75.888 41.703,75.857 42.156,75.857 C42.422,75.857 43.109,75.888 43.39,75.888 C43.453,75.888 43.578,75.888 43.578,75.67 C43.578,75.545 43.468,75.545 43.328,75.545 C42.656,75.545 42.656,75.466 42.625,75.154 L41.953,68.341 C41.937,68.123 41.937,68.076 41.75,68.076 C41.578,68.076 41.531,68.154 41.468,68.263 z M38.984,73.029 L41.125,69.435 L41.484,73.029 z M38.984,73.029" fill="#000000"/>
    <path d="M45.494,76.212 C45.525,76.103 45.604,75.79 45.619,75.681 C45.65,75.603 45.697,75.399 45.713,75.321 C45.729,75.29 45.994,74.774 46.338,74.509 C46.604,74.29 46.869,74.228 47.104,74.228 C47.385,74.228 47.557,74.415 47.557,74.774 C47.557,74.962 47.51,75.149 47.416,75.509 C47.354,75.712 47.229,76.243 47.182,76.462 L47.057,76.946 C47.01,77.071 46.963,77.321 46.963,77.353 C46.963,77.54 47.119,77.603 47.213,77.603 C47.354,77.603 47.479,77.509 47.541,77.415 C47.557,77.368 47.619,77.087 47.666,76.931 L47.838,76.212 C47.869,76.103 47.947,75.79 47.979,75.681 C48.088,75.243 48.088,75.243 48.26,74.978 C48.525,74.587 48.9,74.228 49.432,74.228 C49.729,74.228 49.9,74.399 49.9,74.774 C49.9,75.212 49.557,76.134 49.4,76.509 C49.322,76.712 49.307,76.774 49.307,76.931 C49.307,77.384 49.682,77.603 50.025,77.603 C50.807,77.603 51.135,76.493 51.135,76.384 C51.135,76.306 51.057,76.274 51.01,76.274 C50.916,76.274 50.9,76.337 50.869,76.415 C50.682,77.071 50.354,77.384 50.041,77.384 C49.916,77.384 49.854,77.306 49.854,77.118 C49.854,76.931 49.916,76.759 49.994,76.556 C50.119,76.259 50.463,75.337 50.463,74.899 C50.463,74.29 50.057,74.009 49.479,74.009 C48.932,74.009 48.479,74.29 48.119,74.79 C48.057,74.149 47.541,74.009 47.135,74.009 C46.76,74.009 46.275,74.134 45.838,74.712 C45.775,74.228 45.4,74.009 45.025,74.009 C44.744,74.009 44.541,74.181 44.416,74.446 C44.213,74.821 44.135,75.212 44.135,75.228 C44.135,75.306 44.197,75.337 44.26,75.337 C44.369,75.337 44.369,75.306 44.432,75.087 C44.525,74.696 44.666,74.228 44.994,74.228 C45.213,74.228 45.26,74.431 45.26,74.603 C45.26,74.759 45.213,74.899 45.15,75.165 C45.135,75.228 45.01,75.696 44.979,75.806 L44.682,77.009 C44.65,77.134 44.604,77.321 44.604,77.353 C44.604,77.54 44.76,77.603 44.869,77.603 C45.01,77.603 45.135,77.509 45.182,77.415 C45.213,77.368 45.275,77.087 45.307,76.931 z M45.494,76.212" fill="#000000"/>
    <path d="M53.89,72.446 C53.89,72.228 53.875,72.228 53.656,72.228 C53.328,72.54 52.906,72.728 52.156,72.728 L52.156,72.993 C52.375,72.993 52.797,72.993 53.265,72.79 L53.265,76.868 C53.265,77.165 53.234,77.259 52.484,77.259 L52.203,77.259 L52.203,77.524 C52.531,77.493 53.219,77.493 53.578,77.493 C53.937,77.493 54.625,77.493 54.953,77.524 L54.953,77.259 L54.672,77.259 C53.922,77.259 53.89,77.165 53.89,76.868 z M53.89,72.446" fill="#000000"/>
    <path d="M68.039,74.638 C67.601,75.357 67.179,75.513 66.695,75.545 C66.57,75.56 66.46,75.56 66.46,75.763 C66.46,75.841 66.523,75.888 66.617,75.888 C66.898,75.888 67.242,75.857 67.554,75.857 C67.914,75.857 68.289,75.888 68.632,75.888 C68.71,75.888 68.851,75.888 68.851,75.685 C68.851,75.56 68.742,75.545 68.664,75.545 C68.414,75.529 68.164,75.435 68.164,75.17 C68.164,75.045 68.226,74.92 68.304,74.763 L69.132,73.373 L71.882,73.373 C71.898,73.591 72.054,75.076 72.054,75.185 C72.054,75.513 71.492,75.545 71.273,75.545 C71.117,75.545 71.007,75.545 71.007,75.763 C71.007,75.888 71.132,75.888 71.164,75.888 C71.601,75.888 72.07,75.857 72.523,75.857 C72.789,75.857 73.476,75.888 73.757,75.888 C73.82,75.888 73.945,75.888 73.945,75.67 C73.945,75.545 73.835,75.545 73.695,75.545 C73.023,75.545 73.023,75.466 72.992,75.154 L72.32,68.341 C72.304,68.123 72.304,68.076 72.117,68.076 C71.945,68.076 71.898,68.154 71.835,68.263 z M69.351,73.029 L71.492,69.435 L71.851,73.029 z M69.351,73.029" fill="#000000"/>
    <path d="M75.861,76.212 C75.892,76.103 75.971,75.79 75.986,75.681 C76.017,75.603 76.064,75.399 76.08,75.321 C76.096,75.29 76.361,74.774 76.705,74.509 C76.971,74.29 77.236,74.228 77.471,74.228 C77.752,74.228 77.924,74.415 77.924,74.774 C77.924,74.962 77.877,75.149 77.783,75.509 C77.721,75.712 77.596,76.243 77.549,76.462 L77.424,76.946 C77.377,77.071 77.33,77.321 77.33,77.353 C77.33,77.54 77.486,77.603 77.58,77.603 C77.721,77.603 77.846,77.509 77.908,77.415 C77.924,77.368 77.986,77.087 78.033,76.931 L78.205,76.212 C78.236,76.103 78.314,75.79 78.346,75.681 C78.455,75.243 78.455,75.243 78.627,74.978 C78.892,74.587 79.267,74.228 79.799,74.228 C80.096,74.228 80.267,74.399 80.267,74.774 C80.267,75.212 79.924,76.134 79.767,76.509 C79.689,76.712 79.674,76.774 79.674,76.931 C79.674,77.384 80.049,77.603 80.392,77.603 C81.174,77.603 81.502,76.493 81.502,76.384 C81.502,76.306 81.424,76.274 81.377,76.274 C81.283,76.274 81.267,76.337 81.236,76.415 C81.049,77.071 80.721,77.384 80.408,77.384 C80.283,77.384 80.221,77.306 80.221,77.118 C80.221,76.931 80.283,76.759 80.361,76.556 C80.486,76.259 80.83,75.337 80.83,74.899 C80.83,74.29 80.424,74.009 79.846,74.009 C79.299,74.009 78.846,74.29 78.486,74.79 C78.424,74.149 77.908,74.009 77.502,74.009 C77.127,74.009 76.642,74.134 76.205,74.712 C76.142,74.228 75.767,74.009 75.392,74.009 C75.111,74.009 74.908,74.181 74.783,74.446 C74.58,74.821 74.502,75.212 74.502,75.228 C74.502,75.306 74.564,75.337 74.627,75.337 C74.736,75.337 74.736,75.306 74.799,75.087 C74.892,74.696 75.033,74.228 75.361,74.228 C75.58,74.228 75.627,74.431 75.627,74.603 C75.627,74.759 75.58,74.899 75.517,75.165 C75.502,75.228 75.377,75.696 75.346,75.806 L75.049,77.009 C75.017,77.134 74.971,77.321 74.971,77.353 C74.971,77.54 75.127,77.603 75.236,77.603 C75.377,77.603 75.502,77.509 75.549,77.415 C75.58,77.368 75.642,77.087 75.674,76.931 z M75.861,76.212" fill="#000000"/>
    <path d="M84.008,75.899 C84.133,75.774 84.462,75.509 84.602,75.399 C85.087,74.946 85.555,74.509 85.555,73.79 C85.555,72.837 84.758,72.228 83.774,72.228 C82.805,72.228 82.18,72.946 82.18,73.665 C82.18,74.056 82.493,74.103 82.602,74.103 C82.774,74.103 83.024,73.993 83.024,73.681 C83.024,73.274 82.618,73.274 82.524,73.274 C82.758,72.681 83.29,72.493 83.68,72.493 C84.415,72.493 84.805,73.118 84.805,73.79 C84.805,74.618 84.227,75.228 83.274,76.181 L82.274,77.228 C82.18,77.306 82.18,77.321 82.18,77.524 L85.321,77.524 L85.555,76.103 L85.305,76.103 C85.29,76.259 85.227,76.649 85.133,76.806 C85.087,76.868 84.477,76.868 84.352,76.868 L82.93,76.868 z M84.008,75.899" fill="#000000"/>
    <g>
      <path d="M98.547,73.17 C98.547,72.841 98.282,72.591 97.969,72.591 C97.657,72.591 97.391,72.841 97.391,73.17 C97.391,73.482 97.657,73.732 97.969,73.732 C98.282,73.732 98.547,73.482 98.547,73.17 z M98.547,73.17" fill="#000000"/>
      <path d="M103.4,73.17 C103.4,72.841 103.134,72.591 102.821,72.591 C102.509,72.591 102.243,72.841 102.243,73.17 C102.243,73.482 102.509,73.732 102.821,73.732 C103.134,73.732 103.4,73.482 103.4,73.17 z M103.4,73.17" fill="#000000"/>
    </g>
    <path d="M108.241,73.17 C108.241,72.841 107.975,72.591 107.663,72.591 C107.35,72.591 107.085,72.841 107.085,73.17 C107.085,73.482 107.35,73.732 107.663,73.732 C107.975,73.732 108.241,73.482 108.241,73.17 z M108.241,73.17" fill="#000000"/>
  </g>
</svg>
